<svg width="200" height="220" viewBox="0 0 200 220" xmlns="http://www.w3.org/2000/svg">
  <path d="M28,36 L27,188 Q27,196 35,196 L165,197 Q173,197 173,189 L174,36 Q174,28 166,28 L36,28 Q28,28 28,36 Z" fill="#EEEDFE" stroke="#534AB7" stroke-width="2.5" stroke-linecap="round" stroke-linejoin="round"/>
  <path d="M76,14 L124,14 Q130,14 130,20 L130,32 Q130,38 124,38 L76,38 Q70,38 70,32 L70,20 Q70,14 76,14 Z" fill="#FAEEDA" stroke="#854F0B" stroke-width="2" stroke-linecap="round"/>
  <path d="M90,26 Q100,16 110,26" stroke="#854F0B" fill="none" stroke-width="2.2" stroke-linecap="round"/>
  <line x1="44" y1="58" x2="156" y2="58" stroke="#AFA9EC" stroke-width="1.5" stroke-linecap="round"/>
  <line x1="44" y1="74" x2="156" y2="74" stroke="#AFA9EC" stroke-width="1.5" stroke-linecap="round"/>
  <rect x="44" y="92" width="18" height="18" rx="4" fill="#E1F5EE" stroke="#0F6E56" stroke-width="2"/>
  <path d="M48,101 L53,107 L62,95" stroke="#0F6E56" fill="none" stroke-width="2.5" stroke-linecap="round"/>
  <line x1="72" y1="101" x2="156" y2="101" stroke="#AFA9EC" stroke-width="1.5" stroke-linecap="round"/>
  <rect x="44" y="120" width="18" height="18" rx="4" fill="#E1F5EE" stroke="#0F6E56" stroke-width="2"/>
  <path d="M48,129 L53,135 L62,123" stroke="#0F6E56" fill="none" stroke-width="2.5" stroke-linecap="round"/>
  <line x1="72" y1="129" x2="148" y2="129" stroke="#AFA9EC" stroke-width="1.5" stroke-linecap="round"/>
  <rect x="44" y="148" width="18" height="18" rx="4" fill="#EEEDFE" stroke="#534AB7" stroke-width="2"/>
  <line x1="72" y1="157" x2="156" y2="157" stroke="#AFA9EC" stroke-width="1.5" stroke-linecap="round"/>
  <rect x="44" y="172" width="18" height="18" rx="4" fill="#EEEDFE" stroke="#534AB7" stroke-width="2"/>
  <line x1="72" y1="181" x2="140" y2="181" stroke="#AFA9EC" stroke-width="1.5" stroke-linecap="round"/>
  <text x="100" y="212" font-family="'Comic Sans MS',cursive" font-size="14" fill="#534AB7" text-anchor="middle">to-do list</text>
</svg>
