<svg width="200" height="250" viewBox="0 0 200 250" xmlns="http://www.w3.org/2000/svg">
  <path d="M100,14 Q108,14 132,58 L132,162 Q132,176 100,186 Q68,176 68,162 L68,58 Q92,14 100,14 Z" fill="#E6F1FB" stroke="#185FA5" stroke-width="2.5" stroke-linecap="round" stroke-linejoin="round"/>
  <ellipse cx="100" cy="94" rx="22" ry="22" fill="#FBEAF0" stroke="#993556" stroke-width="2.2"/>
  <path d="M68,150 Q46,168 44,192 L68,180 Z" fill="#FAECE7" stroke="#993C1D" stroke-width="2" stroke-linecap="round"/>
  <path d="M132,150 Q154,168 156,192 L132,180 Z" fill="#FAECE7" stroke="#993C1D" stroke-width="2" stroke-linecap="round"/>
  <path d="M82,184 Q100,216 100,234 Q100,216 118,184" fill="#F09595" stroke="#A32D2D" stroke-width="2" stroke-linecap="round"/>
  <path d="M88,196 Q100,222 112,196" fill="#FAC775" stroke="#854F0B" stroke-width="1.5" stroke-linecap="round"/>
  <line x1="68" y1="76" x2="56" y2="60" stroke="#AFA9EC" stroke-width="1.5" stroke-linecap="round"/>
  <line x1="132" y1="76" x2="144" y2="60" stroke="#AFA9EC" stroke-width="1.5" stroke-linecap="round"/>
  <text x="100" y="248" font-family="'Comic Sans MS',cursive" font-size="14" fill="#185FA5" text-anchor="middle">launch tasks!</text>
</svg>
