<svg width="260" height="200" viewBox="0 0 260 200" xmlns="http://www.w3.org/2000/svg">
  <circle cx="52" cy="120" r="38" fill="#FAEEDA" stroke="#854F0B" stroke-width="2.5"/>
  <text x="52" y="127" font-family="'Comic Sans MS',cursive" font-size="16" font-weight="bold" fill="#854F0B" text-anchor="middle">1st</text>
  <line x1="52" y1="82" x2="52" y2="60" stroke="#534AB7" stroke-width="2.5" stroke-linecap="round"/>
  <line x1="34" y1="60" x2="70" y2="60" stroke="#534AB7" stroke-width="2.5" stroke-linecap="round"/>
  <path d="M43,155 L52,172 L61,155" fill="#EF9F27" stroke="#854F0B" stroke-width="1.5"/>
  <circle cx="130" cy="126" r="32" fill="#F1EFE8" stroke="#5F5E5A" stroke-width="2.5"/>
  <text x="130" y="133" font-family="'Comic Sans MS',cursive" font-size="15" font-weight="bold" fill="#5F5E5A" text-anchor="middle">2nd</text>
  <line x1="130" y1="94" x2="130" y2="72" stroke="#888780" stroke-width="2.5" stroke-linecap="round"/>
  <line x1="114" y1="72" x2="146" y2="72" stroke="#888780" stroke-width="2.5" stroke-linecap="round"/>
  <path d="M122,156 L130,172 L138,156" fill="#B4B2A9" stroke="#5F5E5A" stroke-width="1.5"/>
  <circle cx="206" cy="132" r="26" fill="#FAECE7" stroke="#993C1D" stroke-width="2.5"/>
  <text x="206" y="138" font-family="'Comic Sans MS',cursive" font-size="14" fill="#993C1D" text-anchor="middle">3rd</text>
  <line x1="206" y1="106" x2="206" y2="84" stroke="#D85A30" stroke-width="2.5" stroke-linecap="round"/>
  <line x1="192" y1="84" x2="220" y2="84" stroke="#D85A30" stroke-width="2.5" stroke-linecap="round"/>
  <path d="M199,156 L206,172 L213,156" fill="#F0997B" stroke="#993C1D" stroke-width="1.5"/>
  <text x="130" y="196" font-family="'Comic Sans MS',cursive" font-size="14" fill="#854F0B" text-anchor="middle">leaderboard</text>
</svg>
