<svg width="240" height="220" viewBox="0 0 240 220" xmlns="http://www.w3.org/2000/svg">
  <rect x="10" y="10" width="220" height="180" rx="12" fill="#E6F1FB" stroke="#185FA5" stroke-width="2.2"/>
  <text x="120" y="34" font-family="'Comic Sans MS',cursive" font-size="14" fill="#185FA5" text-anchor="middle">tasks this week</text>
  <line x1="26" y1="164" x2="218" y2="164" stroke="#378ADD" stroke-width="2" stroke-linecap="round"/>
  <line x1="26" y1="164" x2="26" y2="46" stroke="#378ADD" stroke-width="2" stroke-linecap="round"/>
  <rect x="36" y="120" width="28" height="44" rx="4" fill="#7F77DD" stroke="#534AB7" stroke-width="1.5"/>
  <rect x="76" y="96" width="28" height="68" rx="4" fill="#7F77DD" stroke="#534AB7" stroke-width="1.5"/>
  <rect x="116" y="68" width="28" height="96" rx="4" fill="#534AB7" stroke="#3C3489" stroke-width="1.5"/>
  <rect x="156" y="82" width="28" height="82" rx="4" fill="#7F77DD" stroke="#534AB7" stroke-width="1.5"/>
  <rect x="196" y="54" width="22" height="110" rx="4" fill="#3C3489" stroke="#26215C" stroke-width="1.5"/>
  <text x="50" y="178" font-family="'Comic Sans MS',cursive" font-size="12" fill="#534AB7" text-anchor="middle">M</text>
  <text x="90" y="178" font-family="'Comic Sans MS',cursive" font-size="12" fill="#534AB7" text-anchor="middle">T</text>
  <text x="130" y="178" font-family="'Comic Sans MS',cursive" font-size="12" fill="#534AB7" text-anchor="middle">W</text>
  <text x="170" y="178" font-family="'Comic Sans MS',cursive" font-size="12" fill="#534AB7" text-anchor="middle">T</text>
  <text x="207" y="178" font-family="'Comic Sans MS',cursive" font-size="12" fill="#534AB7" text-anchor="middle">F</text>
  <path d="M36,122 Q90,98 130,70 Q170,84 207,56" stroke="#D4537E" fill="none" stroke-width="2.5" stroke-linecap="round" stroke-dasharray="6,4"/>
  <text x="120" y="212" font-family="'Comic Sans MS',cursive" font-size="14" fill="#185FA5" text-anchor="middle">productivity chart</text>
</svg>
